<?xml version="1.0" standalone="no"?>
<!DOCTYPE svg PUBLIC "-//W3C//DTD SVG 20010904//EN"
 "http://www.w3.org/TR/2001/REC-SVG-20010904/DTD/svg10.dtd">
<svg version="1.0" xmlns="http://www.w3.org/2000/svg"
 width="1020.000000pt" height="822.000000pt" viewBox="0 0 1020.000000 822.000000"
 preserveAspectRatio="xMidYMid meet">

<g transform="translate(0.000000,822.000000) scale(0.100000,-0.100000)"
fill="#000000" stroke="none">
<path d="M3600 4795 l0 -1525 25 0 c14 0 687 0 1495 0 809 0 1484 0 1500 0
l30 0 0 1525 0 1525 -1525 0 -1525 0 0 -1525z m2818 -3 l2 -1292 -1296 0
-1297 0 7 123 c27 477 176 924 438 1315 65 98 160 223 165 219 1 -2 29 -67 62
-146 l60 -144 -225 -560 c-124 -308 -228 -566 -231 -574 -4 -11 72 -13 439
-13 l445 0 37 118 c21 64 47 147 59 185 11 37 24 64 28 60 4 -5 33 -88 65
-185 l59 -178 467 0 467 0 -16 38 c-8 20 -118 278 -244 574 l-229 536 235 566
c129 311 235 571 235 576 0 6 -58 10 -147 11 l-148 1 65 14 c115 23 222 37
350 44 69 3 130 6 135 5 7 -1 11 -442 13 -1293z m-1438 816 c45 -139 98 -305
119 -368 l38 -115 121 365 120 365 272 3 c217 2 271 0 267 -10 -3 -7 -96 -231
-206 -496 l-201 -484 209 -491 209 -492 -286 -3 c-157 -1 -289 1 -293 5 -3 5
-59 167 -124 361 -64 194 -119 351 -122 348 -3 -2 -55 -164 -117 -358 l-112
-353 -272 -3 -272 -2 10 22 c6 13 95 235 199 495 l189 471 -204 492 c-112 271
-204 494 -204 496 0 2 130 4 290 4 l289 0 81 -252z m184 98 c-18 -58 -29 -69
-38 -38 -2 9 -7 27 -11 38 -4 17 2 26 27 42 18 12 34 19 36 17 2 -2 -4 -28
-14 -59z"/>
<path d="M4490 2818 c-109 -31 -161 -154 -111 -264 23 -50 63 -76 161 -103 85
-24 121 -51 104 -79 -15 -24 -119 -28 -191 -7 -30 9 -57 15 -58 13 -2 -2 -13
-41 -25 -87 -17 -68 -19 -86 -8 -93 46 -29 209 -47 274 -29 98 26 154 99 154
201 0 93 -48 146 -154 171 -84 19 -116 36 -116 59 0 13 10 24 28 31 35 14 142
5 181 -16 17 -8 32 -15 34 -15 6 0 31 190 25 195 -2 2 -30 11 -63 20 -66 17
-181 19 -235 3z"/>
<path d="M7324 2814 c-134 -49 -209 -207 -184 -387 25 -175 147 -278 315 -265
106 9 180 60 227 156 31 63 33 73 33 177 0 98 -3 116 -26 166 -31 65 -80 117
-135 144 -51 25 -174 30 -230 9z m175 -210 c63 -52 65 -152 6 -211 -27 -27
-41 -33 -74 -33 -76 0 -121 51 -121 135 0 26 5 56 11 68 34 69 121 89 178 41z"/>
<path d="M7967 2815 c-80 -28 -117 -86 -117 -183 0 -100 44 -145 182 -184 40
-11 79 -25 86 -30 17 -15 15 -55 -4 -62 -28 -11 -118 -6 -174 8 -30 8 -57 13
-61 11 -12 -8 -42 -166 -33 -175 32 -32 211 -50 287 -29 79 22 147 111 147
194 0 96 -49 146 -173 178 -66 17 -110 43 -104 60 12 38 110 47 195 18 28 -10
52 -17 53 -17 0 1 6 42 14 91 11 79 11 92 -2 102 -41 32 -226 44 -296 18z"/>
<path d="M1959 2798 c5 -13 34 -83 65 -157 31 -73 56 -139 56 -145 0 -7 -27
-79 -60 -161 -33 -82 -60 -153 -60 -157 0 -5 41 -7 91 -6 l92 3 35 110 35 110
37 -110 37 -110 101 -3 101 -3 -43 103 c-24 57 -55 129 -70 162 l-26 58 65
157 c36 87 65 161 65 165 0 4 -41 5 -92 4 l-91 -3 -37 -110 -37 -110 -35 110
-35 110 -101 3 -102 3 9 -23z"/>
<path d="M2600 2735 l0 -85 125 0 c69 0 125 -2 125 -5 0 -3 -61 -94 -135 -201
-117 -170 -135 -201 -135 -235 l0 -39 230 0 231 0 -3 83 -3 82 -117 3 c-65 1
-118 6 -118 11 0 4 31 52 68 107 190 276 182 263 182 315 l0 49 -225 0 -225 0
0 -85z"/>
<path d="M3170 2495 l0 -325 210 0 211 0 -3 93 -3 92 -120 5 -120 5 -3 39 c-2
24 2 42 10 47 7 5 55 9 106 9 l92 0 0 35 0 35 -106 0 -105 0 3 48 3 47 118 3
117 3 0 94 0 95 -205 0 -205 0 0 -325z"/>
<path d="M3710 2495 l0 -325 76 0 77 0 -5 227 c-3 124 -2 220 2 212 4 -8 36
-110 71 -226 l64 -213 113 0 112 0 0 325 0 326 -72 -3 -73 -3 -5 -183 -5 -184
-69 186 -68 186 -109 0 -109 0 0 -325z"/>
<path d="M4890 2725 l0 -95 75 0 75 0 0 -230 0 -230 85 0 85 0 0 230 0 230 75
0 75 0 0 95 0 95 -235 0 -235 0 0 -95z"/>
<path d="M5470 2602 c0 -297 16 -355 109 -410 42 -25 55 -27 151 -27 97 0 109
2 152 27 36 22 53 41 75 85 l28 58 3 243 4 242 -86 0 -86 0 0 -182 c0 -251
-10 -278 -98 -278 -27 0 -45 6 -58 21 -17 19 -19 41 -22 230 l-3 209 -85 0
-84 0 0 -218z"/>
<path d="M6130 2495 l0 -325 133 0 c117 0 138 3 182 24 70 32 128 101 149 174
21 75 20 180 -1 256 -14 50 -27 71 -72 116 -70 70 -103 80 -265 80 l-126 0 0
-325z m258 109 c13 -9 30 -31 38 -49 36 -88 -5 -173 -94 -191 l-32 -6 0 137 0
138 32 -7 c18 -3 43 -13 56 -22z"/>
<path d="M6720 2760 l0 -60 35 0 35 0 0 -205 0 -205 -35 0 -35 0 0 -60 0 -60
155 0 155 0 0 60 0 60 -35 0 -35 0 0 205 0 205 35 0 35 0 0 60 0 60 -155 0
-155 0 0 -60z"/>
<path d="M3292 1931 c-54 -9 -82 -37 -88 -87 -9 -77 36 -112 144 -113 59 -1
81 -23 47 -47 -30 -22 -73 -17 -99 11 -17 18 -34 25 -61 25 -37 0 -37 0 -31
-32 3 -18 17 -43 31 -55 47 -41 178 -42 229 -2 22 17 26 28 26 73 0 72 -25 96
-101 96 -73 0 -99 8 -99 31 0 41 97 47 107 8 4 -15 15 -19 44 -19 36 0 39 2
39 28 -1 65 -81 101 -188 83z"/>
<path d="M4450 1931 c-80 -16 -113 -63 -113 -160 -1 -118 45 -165 163 -166 36
0 80 6 98 14 32 14 62 55 62 86 0 21 -73 21 -91 -1 -33 -40 -116 -36 -139 6
-21 40 -7 121 24 142 6 4 30 8 53 8 32 0 46 -5 55 -20 10 -15 24 -20 55 -20
24 0 43 5 43 10 0 24 -32 71 -58 84 -35 18 -108 26 -152 17z"/>
<path d="M5525 1934 c-11 -3 -30 -7 -43 -10 -24 -5 -62 -58 -62 -86 0 -15 9
-18 45 -18 34 0 45 4 45 15 0 21 42 35 77 26 23 -6 28 -13 28 -37 0 -29 -1
-29 -65 -35 -36 -3 -73 -9 -82 -13 -22 -10 -48 -77 -48 -126 l0 -40 146 0 145
0 -3 33 -3 32 -97 3 c-54 1 -98 7 -98 11 0 18 28 29 87 33 40 3 69 10 81 22
40 35 33 142 -11 170 -24 15 -110 27 -142 20z"/>
<path d="M5959 1931 c-77 -25 -102 -64 -102 -161 0 -119 43 -165 153 -165 114
0 155 44 155 165 0 81 -14 116 -58 144 -28 18 -114 28 -148 17z m105 -93 c16
-23 22 -114 8 -134 -25 -38 -91 -39 -117 -1 -23 32 -19 113 5 137 28 28 84 27
104 -2z"/>
<path d="M6400 1930 c-41 -10 -80 -51 -80 -86 0 -21 4 -24 39 -24 29 0 42 6
53 22 11 16 24 22 51 21 46 -1 57 -9 57 -38 0 -27 -17 -35 -75 -35 -87 0 -125
-39 -125 -129 l0 -50 130 -3 c72 -2 135 -1 140 0 6 2 10 19 10 38 l0 34 -95 0
c-52 0 -95 4 -95 9 0 18 27 29 87 33 85 6 103 23 103 97 0 74 -16 96 -80 110
-57 12 -70 12 -120 1z"/>
<path d="M6850 1930 c-72 -17 -111 -100 -96 -203 15 -96 73 -136 181 -123 87
10 125 60 104 138 -13 50 -37 61 -125 56 -47 -2 -74 0 -74 7 0 18 29 52 48 57
26 7 62 -9 62 -27 0 -11 11 -15 45 -15 25 0 45 4 45 9 0 24 -24 71 -43 84 -29
19 -103 27 -147 17z m108 -227 c2 -16 -3 -23 -26 -27 -35 -8 -82 8 -82 28 0
19 17 25 65 23 33 -2 41 -6 43 -24z"/>
<path d="M3647 1923 c-12 -12 -8 -311 4 -315 6 -2 26 -2 45 0 l34 4 0 159 0
159 -38 0 c-21 0 -42 -3 -45 -7z"/>
<path d="M3877 1923 c-4 -3 -7 -75 -7 -160 l0 -153 45 0 44 0 3 97 3 97 58
-97 58 -97 49 0 48 0 4 78 c2 42 1 114 -1 160 l-3 82 -39 0 -39 0 0 -102 0
-103 -62 103 -62 102 -46 0 c-26 0 -50 -3 -53 -7z"/>
<path d="M4810 1771 c0 -88 3 -161 8 -163 4 -2 62 -2 130 0 l122 3 0 35 0 34
-90 0 c-89 0 -90 0 -90 25 0 23 3 24 68 27 l67 3 3 32 3 32 -68 3 c-66 3 -68
4 -71 31 l-3 27 90 0 91 0 0 35 0 35 -130 0 -130 0 0 -159z"/>
</g>
</svg>
